<svg id="bars" class="" xmlns="http://www.w3.org/2000/svg" viewBox="0 0 448 512" style="fill: black">
	#bars {
		width: 60px;
	}
	#bar-top, #bar-mid-1, #bar-mid-2, #bar-bottom {
		-webkit-transition: .5s ease-in-out;
		-moz-transition: .5s ease-in-out;
		-o-transition: .5s ease-in-out;
		transition: .5s ease-in-out;
		transform-origin: 50% 50%;
	}
	
	#bars.open #bar-top {
	  opacity: 0;
	  transform: translate(0px,45px) scale(.5,.5);

	}
	#bars.open #bar-bottom {
	  opacity: 0;
	  transform: translate(0px,-45px) scale(.5,.5);
	}
	#bars.open #bar-mid-1 {
	  -webkit-transform: rotate(45deg);
	  -moz-transform: rotate(45deg);
	  -o-transform: rotate(45deg);
	  transform: rotate(45deg);
	}

	#bars.open #bar-mid-2 {
	  -webkit-transform: rotate(-45deg);
	  -moz-transform: rotate(-45deg);
	  -o-transform: rotate(-45deg);
	  transform: rotate(-45deg);
	}
	<path id="bar-top" d="M16,132h416c8.8,0,16-7.2,16-16V76c0-8.8-7.2-16-16-16H16C7.2,60,0,67.2,0,76v40
		C0,124.8,7.2,132,16,132z"/>
	<path id="bar-bottom" d="M16,452h416c8.8,0,16-7.2,16-16v-40c0-8.8-7.2-16-16-16H16c-8.8,0-16,7.2-16,16v40
		C0,444.8,7.2,452,16,452z"/>
	<path id="bar-mid-2" d="M16,292h416c8.8,0,16-7.2,16-16v-40c0-8.8-7.2-16-16-16H16c-8.8,0-16,7.2-16,16v40
		C0,284.8,7.2,292,16,292z"/>
	<path id="bar-mid-1" d="M16,292h416c8.8,0,16-7.2,16-16v-40c0-8.8-7.2-16-16-16H16c-8.8,0-16,7.2-16,16v40
		C0,284.8,7.2,292,16,292z"/>
</svg>