<?xml version="1.0" encoding="utf-8"?>
<!-- Generator: Adobe Illustrator 22.0.1, SVG Export Plug-In . SVG Version: 6.00 Build 0)  -->
<svg version="1.1" id="Layer_1" xmlns="http://www.w3.org/2000/svg" xmlns:xlink="http://www.w3.org/1999/xlink" x="0px" y="0px"
	 viewBox="0 0 300 529.3" style="enable-background:new 0 0 300 529.3;" xml:space="preserve">
<style type="text/css">
	.st0{fill:#17994C;}
	.st1{fill:#231F20;stroke:#000000;stroke-width:2;stroke-miterlimit:10;}
	.st2{fill:#231F20;}
</style>
<g id="Logo">
	<path class="st0" d="M273.9-0.1H25.8C11.4-0.1-0.3,11.6-0.3,26v248.1c0,14.4,11.7,26.1,26.1,26.1h248.1c14.4,0,26.1-11.7,26.1-26.1
		V26C300,11.6,288.3-0.1,273.9-0.1z M78.3,26.8h71l-71,81.7V26.8z M78.3,273.3v-78.5l19.6-20.3l60.3,98.8H78.3z M221.5,224.7
		l-68.4-107.1L221.5,47V224.7z M283.2,269.4c0,2.2-1.8,4-4,4h-36.9c-2.2,0-4-1.8-4-4v-27.3c0-2.2,1.8-4,4-4h36.9c2.2,0,4,1.8,4,4
		V269.4z M283.2,199.2c0,2.1-1.7,3.7-3.7,3.7H242c-2.1,0-3.7-1.7-3.7-3.7v-27.8c0-2.1,1.7-3.7,3.7-3.7h37.4c2.1,0,3.7,1.7,3.7,3.7
		v27.8H283.2z M283.2,128.2c0,2.3-1.9,4.2-4.2,4.2h-36.4c-2.3,0-4.2-1.9-4.2-4.2v-26.8c0-2.3,1.9-4.2,4.2-4.2H279
		c2.3,0,4.2,1.9,4.2,4.2V128.2z M283.2,57.8c0,2.3-1.9,4.2-4.2,4.2h-36.5c-2.3,0-4.2-1.9-4.2-4.2V31.2c0-2.5,2-4.5,4.5-4.5H279
		c2.3,0,4.2,1.9,4.2,4.2V57.8z"/>
	<g id="Klein_3_">
		<polygon id="K_3_" class="st1" points="54.6,403 57.1,403 17.7,355.1 56.1,324.4 53,324.4 1.7,365.4 1.7,324.4 -0.3,324.4 
			-0.3,403 1.7,403 1.7,367.9 16.2,356.3 		"/>
		<g id="L_3_">
			<polygon class="st1" points="115.4,403 76.7,403 76.7,324.4 78.6,324.4 78.6,401 115.4,401 			"/>
		</g>
		<polygon id="E_3_" class="st1" points="188.3,326.4 188.3,324.4 133.3,324.4 133.3,403 188.3,403 188.3,401 135.2,401 
			135.2,360.5 170.4,360.5 170.4,358.5 135.2,358.5 135.2,326.4 		"/>
		<g id="I_3_">
			<rect x="209.4" y="324.4" class="st1" width="2" height="78.5"/>
		</g>
		<polygon id="N_3_" class="st1" points="300,403 300,324.4 298,324.4 298,399.9 244.8,324.4 242.6,324.4 242.6,403 244.6,403 
			244.6,327.5 297.8,403 		"/>
	</g>
	<g>
		<path class="st2" d="M17.4,528.5l-17.7-101h16.8l5.4,41.1c1.8,13.6,3.9,27.9,4.8,39.5H27c0.9-11,3.2-25.4,4.8-39.2l5-41.4h16.7
			l-17.2,101H17.4z"/>
		<path class="st2" d="M76.3,427.5v101H60.8v-101H76.3z"/>
		<path class="st2" d="M101,498.8v6.2c0,7.5,2.3,11.7,8.2,11.7c6.1,0,7.6-5.8,7.6-12.3c0-10.9-2.3-14.2-13.2-22.8
			C92.8,473,87,467.5,87,452.6c0-13.3,4-26.7,22.3-26.7c18.6,0,21.5,13.3,21.5,24.3v5.4h-15.4v-5c0-7-1.2-11.3-6.4-11.3
			c-5.1,0-6.4,4.4-6.4,11.1c0,7.1,1.4,10.6,10.2,17.1c15.1,11.2,19.7,17.7,19.7,34.6c0,14.3-5,27.9-23.9,27.9
			c-18.6,0-23.1-12-23.1-25.3v-6L101,498.8L101,498.8z"/>
		<path class="st2" d="M157.4,427.5v76.8c0,7.4,2.4,11.6,8.4,11.6c6.2,0,8.2-4.7,8.2-11.6v-76.9h15.6V504c0,15.9-7.2,26-24.1,26
			c-16.1,0-23.7-8.7-23.7-25.9v-76.6H157.4z"/>
		<path class="st2" d="M215.8,501.5l-3.5,27h-15.8l16.3-101h22l16.9,101h-16.3l-4-27H215.8z M229.5,487.1
			c-2.3-17.2-4.5-33.4-5.7-44.9h-0.6c-0.4,8.3-3.5,30-5.5,44.9H229.5z"/>
		<path class="st2" d="M259,427.5h15.6v87.1H300l-1.3,13.9H259V427.5z"/>
	</g>
</g>
</svg>
