<svg id="Layer_1" data-name="Layer 1" xmlns="http://www.w3.org/2000/svg" viewBox="0 0 466.41 123.96">
  <defs>
    <style>
      .cls-1 {
        fill: #1fa354;
      }
    </style>
  </defs>
  <title>cloud-l-2</title>
  <g id="splash-bg">
    <g id="clouds1">
      <path class="cls-1" d="M384,274.36c6.33-8.33,6.33-18.45-.67-26-9-9.27-24-5.06-32,2.53,6-10.12,16-16.86,24.24-25.07a37.93,37.93,0,0,1,6.31-3.09,31.42,31.42,0,0,1,21.45-.5c4,1.69,4.5,4.21,4.13,7.06s-1.63,6-1.13,9a32.18,32.18,0,0,1,3.61-7.69c7.76-12.14,23.74-20.62,40.46-18.77a32.12,32.12,0,0,1,8.68,2.29c3.05,1.21,6,2.56,8.56,3.78a48,48,0,0,1,7,4,40.23,40.23,0,0,1-7-7.47c-3.3-4-4.3-9-4.48-14.25a17.86,17.86,0,0,1,2.32-7.11c6.32-11.12,23.89-18.24,39.3-17.52a45.08,45.08,0,0,1,30.38,13.78c4.19,4.29,6.19,8.5,8.19,13.56a46.6,46.6,0,0,1,3.16-12.46c1.67-4.17,2.82-8,4.7-11.7,9.15-23,46.15-24.73,65.15-9.56,11,8.43,12,21.92,8,32.87,3-3.37,5-6.74,8.25-10.12a43.66,43.66,0,0,1,11.6-7.8,45.8,45.8,0,0,1,14.15-4c12.67-.56,28.89.37,39.48,6.81a24.41,24.41,0,0,1,6.75,5.9c8.77,9.21,4.77,21-2.23,30.29,9-8.43,26-10.12,36-2.53,6,5.9,3,16-3,21.92,2-12.64,19-20.23,32.77-15.85a25.57,25.57,0,0,1,7.36,3.48c6.87,3.94,8.87,11.53,8.87,19.12,9-6.74,22-7.59,32-3.37,1,0.84,2,2.53,1,3.37-15,9.27-35,13.49-51.26,6a67.54,67.54,0,0,1-16.51,12.54,49,49,0,0,1-18.38,5.81,35,35,0,0,1-9.15-.32c-10.69-2.12-18.69-9.71-24.69-17.3-9,17.07-30.37,17.54-49.71,14.2-3.22-.56-6.39-1.22-9.43-2-5.93-1.91-13.14-3.29-19.12-5.87a28,28,0,0,1-5.48-3.05,7.23,7.23,0,0,1-3.59-4.69,15.77,15.77,0,0,1-.67-5.38c2,22.76-28,36.25-52,33.72-18-1.69-35-11.8-37.63-27.49-1.78.7,0.63,4.73-2.72,5.91a99.56,99.56,0,0,1-8.62,6.5c-21,19.29-62,21.82-77-6-3-4.21-12-4.21-18.46-.92-2.13.85-4.3,1.71-6.45,2.63-6.45,2.75-12.77,6-17.79,11.3C386.19,275,384.64,274.77,384,274.36Z" transform="translate(-351.31 -159.23)"/>
    </g>
  </g>
</svg>
