<svg id="Layer_1" data-name="Layer 1" xmlns="http://www.w3.org/2000/svg" viewBox="0 0 294.77 58.49">
  <defs>
    <style>
      .cls-1 {
        fill: #219e4e;
      }
    </style>
  </defs>
  <title>cloud-s-4</title>
  <path class="cls-1" d="M497.65,185.33c-1.82-2.6-1.51-6.64.39-10.14-2.52,1.52-12.21,7.24-14.05,5.14-1.58-1.8,2.3-9.64,8.67-12.33,5.74-2.43,13.05-.48,18.88,4.83a46.46,46.46,0,0,1,38.77-3.91c-0.38-2.77-.71-8.34,2.68-11.92,4.07-4.29,11.17-3.27,20.57-1.79a86.27,86.27,0,0,1,22.67,6.91c1-2.52,6-14.61,19.1-20.12,2.94-1.23,10.41-4.46,19.33-2,13.09,3.6,18.24,16.31,18.88,18,14.54-10.11,35.93-8.33,53.89-4.16,6,1.78,12.83,4.16,11.12,10.11,0.26-.14,5.9-3.16,11.45.09,5.26,3.09,5.64,9,5.66,9.42,3.42-4.16,12-5.35,18-3.57,2.57,1.19,8.55,2.38,7.76,5.58a36.88,36.88,0,0,1,17-.81A38.77,38.77,0,0,1,771,182c-14.38,10.84-31.83,7.87-35,7.33a50.46,50.46,0,0,1-20-8.18c-2.65,2.33-18.83,16.1-42,13.51a54.77,54.77,0,0,1-32.43-15.89c-0.85,2.51-4,10.76-12.57,15.56-7,3.91-13.7,3.37-17.67,3-16.87-1.58-27.62-14.32-30.5-18-6.84,4.76-17.11,5.95-26.35,5.29-4.51-.32-8.26-0.56-11.73-1.06a125.61,125.61,0,0,1-22.65-5.42L514,185C508,190.19,500.36,189.2,497.65,185.33Z" transform="translate(-483.63 -139.1)"/>
</svg>
