<svg id="Layer_1" data-name="Layer 1" xmlns="http://www.w3.org/2000/svg" viewBox="0 0 188 56.5">
  <defs>
    <style>
      .cls-1 {
        fill: #219e4e;
      }
    </style>
  </defs>
  <title>cloud-s-8</title>
  <path class="cls-1" d="M1655.15,140.19c-2.55-2.47-2.55-5.47.27-7.73,3.63-2.75,9.67-1.5,12.9.75-2.42-3-6.45-5-9.77-7.44a18.05,18.05,0,0,0-2.54-.92,14.6,14.6,0,0,0-8-.16c-2.06,0-1.53,3.1-1,4.66-6.39-10.92-17-9.36-25.56-4.68,2.13,0,2.66-2.34,4.26-3.9,1.6-2.34,0-6.24-1.6-7.8-9.05-6.24-22.9-12.48-29.82,2.34-1.6-9.36-6.39-16.38-12.78-17.94a51.05,51.05,0,0,0-9.89-2.43c-6.62-1.47-16.73,2.43-13,14.91-9.05-13.26-22.36-10.92-33.55-5.46-3.73,2.34-8,5.46-6.92,13.26,0.53,1.56,1.06,3.12,2.13,3.9-4.79-1.56-11.18-4.68-14.38,2.34-1.06,2.34-.53,5.46,1.6,6.24-2.13-5.46-7.45-7-11.18-4.68-1.6,1.56-5.32,3.12-4.83,7.31-2.7-2.09-6.57-2.31-10.6-1.06-0.4.25-.81,0.75-0.4,1a5.09,5.09,0,0,0,4.12,2.1c9.05-.78,16,3.12,24.49,7.8,3.73,1.56,7.45-3.12,10.65-2.34,14.91,2.34,34.08,15.6,46.33-3.12,1.06,7.8,5.32,14.82,11,13.91,1.89,0,3.76-.18,6.28-0.29,8-.11,16.52-2.3,20.52-12.84,4.26,6.24,10.65,7.8,16.41,6.94a33.69,33.69,0,0,0,7.3-1.39,50.19,50.19,0,0,0,14.1-7.11c2.66-1.56,8,.78,11.62,4A5,5,0,0,0,1655.15,140.19Z" transform="translate(-1480.31 -94.65)"/>
</svg>
