<svg id="Layer_1" data-name="Layer 1" xmlns="http://www.w3.org/2000/svg" viewBox="0 0 182.61 62.98">
  <defs>
    <style>
      .cls-1 {
        fill: #219e4e;
      }
    </style>
  </defs>
  <title>cloud-s-6</title>
  <path class="cls-1" d="M1285.73,181.46c-111.8-4-157.76-3.21-166.9,0-1,.36-6.08,2.33-9.77,0-4.29-2.7-5.52-10.41-3.17-15.23,3.15-6.47,13.75-9.77,25.38-5.71-2.24-7.65.32-15.64,6-19.67,7.32-5.16,19-3.19,25.06,5.71-3.06-10.41,2.11-21.35,11.42-25.38,10.26-4.43,23,.63,27.6,11.74a14.63,14.63,0,0,1,25.06,9.2c0.41-.39,9.38-8.76,19.67-5.71,8,2.37,11.63,10.08,13,13a28.26,28.26,0,0,1,2.54,9.2c7.83-4.74,16.58-4.88,21.25-.63,4.42,4,4.43,11.3,4.44,14.27A27.46,27.46,0,0,1,1285.73,181.46Z" transform="translate(-1104.71 -119.59)"/>
</svg>
