<svg id="Layer_1" data-name="Layer 1" xmlns="http://www.w3.org/2000/svg" viewBox="0 0 289.76 118.73">
  <defs>
    <style>
      .cls-1 {
        fill: #1fa354;
      }
    </style>
  </defs>
  <title>cloud-l-5</title>
  <g id="splash-bg">
    <g id="clouds1">
      <path class="cls-1" d="M2085.31,117.33c3.4,8,2.84,16.35-1.33,20-5.51,4.82-19.06,3-27.33-9.33-2.92,2.69-26,23.29-58,18-22.75-3.76-36.36-18.38-40.31-23-3.27,14.75-16.79,24.25-30,22.57-10.58-1.35-19.65-9.74-22.53-21a39.71,39.71,0,0,1-72.21,4.27c-1.28.55-9,3.78-15.41,0-7.93-4.7-8.35-17.11-5-24,5-10.2,21.68-15.4,40-9-3.54-12.06.51-24.66,9.5-31,11.54-8.14,29.88-5,39.5,9-4.83-16.41,3.32-33.66,18-40,16.17-7,36.27,1,43.5,18.5a23.07,23.07,0,0,1,39.5,14.5c0.64-.62,14.78-13.81,31-9,12.59,3.73,18.33,15.89,20.5,20.5a44.54,44.54,0,0,1,4,14.5c12.34-7.47,26.14-7.7,33.5-1,6.18,5.62,11.75,16.74,7,22.5C2095.29,119.09,2086.53,117.56,2085.31,117.33Z" transform="translate(-1811.23 -31.32)"/>
    </g>
  </g>
</svg>
