<svg id="Layer_1" data-name="Layer 1" xmlns="http://www.w3.org/2000/svg" viewBox="0 0 1920 334.9">
  <defs>
    <style>
      .cls-1 {
        fill: #19934a;
      }

      .cls-2 {
        fill: #199e4f;
      }

      .cls-3 {
        fill: #17994c;
      }

      .cls-4 {
        fill: #198e48;
      }
    </style>
  </defs>
  <title>mountains</title>
  <g id="splash-bg">
    <polygon class="cls-1" points="0 293.99 49.64 266.99 66.14 280.49 132.13 260.02 187.63 268.49 237.13 212.99 322.07 202.49 357.7 157.49 414.12 157.49 456.12 184.49 556.61 136.49 600.11 164.99 655.61 175.49 672.11 157.49 712.6 169.49 745.6 116.99 801.1 103.5 855.1 0 886.59 22.5 907.59 82.5 945.09 106.5 978.09 128.99 1032.09 176.99 1069.59 199.49 1119.08 239.99 1246.58 247.49 1336.57 279.4 1402.57 293.99 1480.56 279.4 1552.56 293.99 1636.56 316.4 1653.06 304.49 1702.55 286.49 1737.05 260.02 1764.05 278.9 1798.55 279.4 1809.05 298.49 1854.05 316.4 1920 334.48 0 334.48 0 293.99"/>
    <polygon class="cls-2" points="556.61 136.49 537.11 167.24 537.11 193.49 513.11 212.99 513.11 229.49 513.11 251.99 495.11 260.02 525.86 254.99 535 244.56 556.61 213.9 575.67 212.56 589.67 198.26 631 186.56 638.33 177.9 655.61 175.49 600.11 164.99 556.61 136.49"/>
    <polygon class="cls-2" points="855.1 0 886.59 22.5 907.59 82.5 945.09 106.5 978.09 128.99 1032.09 176.99 1069.59 199.49 1119.08 239.99 1071 213.9 1043 211.23 1011 198.26 1016.33 191.23 998.33 184.56 965.67 185.9 941.67 176.56 941 157.9 941.67 140.56 951.67 136.49 938.33 127.23 922.33 129.9 892.33 125.23 858.33 103.23 869.67 85.23 881.67 67.9 867.67 58.56 872.33 43.23 869.67 21.9 863 18.56 859.75 13.9 855.1 0"/>
    <polygon class="cls-3" points="1737.05 260.02 1764.05 278.9 1798.55 279.4 1809.05 298.49 1794 286.15 1773.05 286.56 1753 282.56 1745.67 271.9 1737.05 267.23 1737.05 260.02"/>
    <polygon class="cls-4" points="909 156.9 884 172.9 875 186.9 862 179.9 843 198.26 802 198.26 770 220.9 736 220.9 716 255.9 704 296.9 661 302.9 639 316.4 589 322.9 634 322.9 655.61 316.4 685 316.4 718 322.9 749 316.4 787 316.4 819 322.9 885 307.9 935 322.9 966 334.9 1131 333.9 1119.08 305.9 1107 296.9 1089 297.9 1056 279.4 1060 260.02 1032 260.02 987.09 279.4 958.59 285.9 935 278.9 893 279.4 869 295.9 831 296.9 807 285.9 806 260.02 787 245.9 805 231.9 831 226.9 855.1 209.9 877 198.26 899 186.9 899 173.9 909 156.9"/>
  </g>
</svg>
