<svg id="llama-suit" xmlns="http://www.w3.org/2000/svg" viewBox="0 0 34.59 71.3">
  <defs>
    <style>
      .cls-1 {
        fill: #a7a9ac;
      }

      .cls-2 {
        fill: #d1d3d4;
      }

      .cls-2, .cls-4, .cls-5 {
        stroke: #414042;
      }

      .cls-2, .cls-3, .cls-4, .cls-5, .cls-6, .cls-7, .cls-8 {
        stroke-linecap: round;
        stroke-linejoin: round;
      }

      .cls-3 {
        fill: #414042;
      }

      .cls-3, .cls-6, .cls-7 {
        stroke: #231f20;
      }

      .cls-4 {
        fill: #c4686c;
      }

      .cls-5, .cls-7 {
        fill: none;
      }

      .cls-6 {
        fill: #fff;
      }

      .cls-8 {
        stroke: #000;
      }
    </style>
  </defs>
  <title>llama-fancy2</title>
  <ellipse id="shadow" class="cls-1" cx="15.95" cy="68.11" rx="15.19" ry="3.19"/>
  <g id="llama-2">
    <g id="legs">
      <g id="legs-rear">
        <path id="leg-rear-right" class="cls-2" d="M35.51,58.66l-.62,14A1.9,1.9,0,0,1,33,74.52h0A1.9,1.9,0,0,1,31,72.66l-.62-14" transform="translate(-23.4 -7.35)"/>
        <path id="leg-rear-left" class="cls-2" d="M33,59.66l-.62,14a1.91,1.91,0,0,1-1.92,1.9h0a1.9,1.9,0,0,1-1.94-1.86l-.62-14" transform="translate(-23.4 -7.35)"/>
      </g>
      <g id="legs-front">
        <g id="leg-front-left">
          <path id="leg-front-left-2" class="cls-2" d="M50,58.66l-.62,14a1.9,1.9,0,0,1-1.94,1.86h0a1.9,1.9,0,0,1-1.94-1.86l-.62-14" transform="translate(-23.4 -7.35)"/>
          <polyline id="pantleg-front-left" class="cls-3" points="21.49 51.29 21.96 61.92 26.14 61.92 26.61 51.29"/>
        </g>
        <g id="leg-front-right">
          <path id="leg-front-right-2" class="cls-2" d="M51.83,59.66l-.62,14a1.9,1.9,0,0,1-1.94,1.86h0a1.9,1.9,0,0,1-1.94-1.86l-.62-14" transform="translate(-23.4 -7.35)"/>
          <polyline id="pantleg-front-right" class="cls-3" points="23.31 52.29 23.77 62.58 27.97 62.58 28.43 52.29"/>
        </g>
      </g>
    </g>
    <g id="tail-g">
      <path id="tail" class="cls-2" d="M28.91,45.85c-1.71-2.63-6.12-1.61-4.75,0C25.28,47.17,26,51,26.54,49.63" transform="translate(-23.4 -7.35)"/>
    </g>
    <g id="ear-g">
      <path id="ear-right" class="cls-4" d="M45.73,18.51c-3.25-3.83.53-10.66,1-10.66s.78,4.34.35,6c-.34,1.34-.36,2.77.27,3.56" transform="translate(-23.4 -7.35)"/>
    </g>
    <path id="ear-left" class="cls-4" d="M50.63,17.88c2.45-3.68-.93-10-1.4-10s-.85,4.34-.41,6c.34,1.34.36,2.77-.27,3.56" transform="translate(-23.4 -7.35)"/>
    <path id="body" class="cls-2" d="M27.83,59.66A14.23,14.23,0,0,1,26,52.74c0-4,2.57-8.27,6.41-8.27h6.83a6.06,6.06,0,0,0,6.06-6.06h0V21.58a4.31,4.31,0,0,1,3.83-4.31c.87-.07,2.46,1.43,3.11,2.06s3.28,1.89,4.54,3.15a2.11,2.11,0,0,1-1,3.63c-1,.11-3,.57-3,.57s2.59,26.8-1,33" transform="translate(-23.4 -7.35)"/>
    <path id="eyebrow" class="cls-5" d="M47.18,21.59c1.37,1.39,2.18,1.1,3.22,0" transform="translate(-23.4 -7.35)"/>
    <path id="mouth" class="cls-5" d="M57.05,25.1c-2.66,0-3.26-.52-3.26-.52" transform="translate(-23.4 -7.35)"/>
    <line id="nose" class="cls-5" x1="33.93" y1="15.81" x2="32.3" y2="15.81"/>
    <line class="cls-5" x1="23.31" y1="52.29" x2="9.55" y2="52.29"/>
  </g>
  <g id="suit">
    <path id="jacket" class="cls-3" d="M51.83,59.66c2.22-3.84,2.08-15.51,1.65-23.88h0l-8.15-1.94V38.4a6,6,0,0,1-6,6.06H37.4V59.66h9.31" transform="translate(-23.4 -7.35)"/>
    <polyline id="shirt" class="cls-6" points="21.93 26.48 21.93 22.79 29.83 24.22 31.14 28.67 30.08 28.41 30.34 40.03 26.74 28.26 25.6 28.43 25.54 27.34 21.93 26.48"/>
    <line id="button1" class="cls-7" x1="28.88" y1="42.98" x2="28.2" y2="42.98"/>
    <line id="button2" class="cls-7" x1="28.77" y1="44.98" x2="28.09" y2="44.98"/>
    <line id="button3" class="cls-7" x1="28.43" y1="46.98" x2="27.76" y2="46.98"/>
    <g id="tie">
      <polygon class="cls-8" points="26.29 32.83 29.11 31.29 26.29 29.75 26.29 32.83"/>
      <polygon class="cls-8" points="29.11 31.29 31.81 32.83 31.81 29.75 29.11 31.29"/>
    </g>
  </g>
</svg>
