<svg id="Layer_1" data-name="Layer 1" xmlns="http://www.w3.org/2000/svg" viewBox="0 0 287.85 99.29">
  <defs>
    <style>
      .cls-1 {
        fill: #1fa354;
      }
    </style>
  </defs>
  <title>cloud-l-3</title>
  <g id="splash-bg">
    <g id="clouds1">
      <path class="cls-1" d="M1202.39,199c-176.23-6.32-248.69-5.06-263.09,0-1.62.57-9.58,3.67-15.41,0-6.76-4.26-8.7-16.41-5-24,5-10.2,21.68-15.4,40-9-3.54-12.06.51-24.66,9.5-31,11.54-8.14,29.88-5,39.5,9-4.83-16.41,3.32-33.66,18-40,16.17-7,36.27,1,43.5,18.5a23.07,23.07,0,0,1,39.5,14.5c0.64-.62,14.78-13.81,31-9,12.59,3.73,18.33,15.89,20.5,20.5a44.54,44.54,0,0,1,4,14.5c12.34-7.47,26.14-7.7,33.5-1,7,6.34,7,17.82,7,22.5A43.29,43.29,0,0,1,1202.39,199Z" transform="translate(-917.05 -101.44)"/>
    </g>
  </g>
</svg>
