<svg id="Layer_1" data-name="Layer 1" xmlns="http://www.w3.org/2000/svg" viewBox="0 0 251.2 152.33">
  <defs>
    <style>
      .cls-1 {
        fill: #1fa354;
      }
    </style>
  </defs>
  <title>cloud-l-1</title>
  <g id="splash-bg">
    <g id="clouds1">
      <path class="cls-1" d="M279.39,149.13c10.81-1.27,21.81-3.27,31.81.73,1-9-7-18-15-20-8-1-14,5-18,11-1-13-4-26-12-36-4-7-14,1-16,8,3-10,6-20,5-31-1-13-13-27-27-21-9,3-10,14-10.56,22.67a44.25,44.25,0,0,0-8.31-22.17c-4.87-6.5-11.62-11-20.12-10.5-17,0-26,19-26,35-5-13-20-22-33-15-17,10-14,32-12,49-2-4-5-10-10-7-12,7-6,23-4,34-1-9-2-25-14-25-6,1-9,6-10.5,12.25s-1.5,13.75-1.5,19.75c-4-7-16-7-18,1-1,5,5,8,8,10,7,4,16,0,21-6,7,9,10,24,21,25,5,0.5,7.46-2,9.11-5.82,0.89-4.18,2.89-8.18,2.89-13.18,6,17,22,42,43,31,11-6,5-22,8-33-1,16,4,34,19,39a21,21,0,0,0,14,.19,29.26,29.26,0,0,0,11.53-7.69,44,44,0,0,0,10.5-23.5c6,8,2,23,12,26,18,4,15-22,23.13-32.58C269.87,153.1,277.27,149.82,279.39,149.13Z" transform="translate(-60.09 -50.82)"/>
    </g>
  </g>
</svg>
