<svg id="Layer_1" data-name="Layer 1" xmlns="http://www.w3.org/2000/svg" viewBox="0 0 137.63 73.49">
  <defs>
    <style>
      .cls-1 {
        fill: #219e4e;
      }
    </style>
  </defs>
  <title>cloud-s-5</title>
  <path class="cls-1" d="M866.85,129.4q6,0.14,12,.38c3.85,0.24,7.31.68,10.78,1.21,32.7,7.77,66.36,9.71,99.1,1,2.66-.53,5.21-1.18,8.69-1.66,3.56-.32,5.34-3.56,5.66-7.44a17.79,17.79,0,0,0-3-11.32c-2.71-3.25-8.54-5.84-12.42-2.6,0.65-10.36-1.94-23.3-13.59-26.54-3.24-.65-8.42.65-7.77,5.18,0.65-11.65-9.06-22-20.71-23.3-7.12-.65-15.54,2.59-19.42,9.06C917.16,66.26,906.15,76,903.56,85c-3.88-3.24-8.42-2.59-12.3-.65-7.77,5.18-8.42,14.24-9.72,22.4-2.4-4.36-7.75-4.93-11.64-1.69-1.94,1.94-2.59,4.53-3.66,7.25a29.74,29.74,0,0,0-.71,8.05A31.57,31.57,0,0,0,866.85,129.4Z" transform="translate(-865.52 -64.23)"/>
</svg>
