<svg id="Layer_1" data-name="Layer 1" xmlns="http://www.w3.org/2000/svg" viewBox="0 0 457.14 140.25">
  <defs>
    <style>
      .cls-1 {
        fill: #1fa354;
      }
    </style>
  </defs>
  <title>cloud-l-4</title>
  <g id="splash-bg">
    <g id="clouds1">
      <path class="cls-1" d="M1333.89,168.63c-9.09-1.43-28.17-2.77-42.52,0-1.4.27-3.6,0.74-4,0-1-1.85,8.93-12.08,21.48-14.17,13.82-2.3,24.57,6.31,26.57,8,0.69-2.61,5-17.81,19.93-25.47,13.69-7,30.88-4.92,43.85,5.31-2.38-2.26-12.65-12.5-11.51-25.69,1.54-17.89,23.14-30.26,41.63-29.23,17.7,1,33.51,14.31,39,33.22,0.23-16.81,10.31-31.67,25.06-37.24,19.17-7.25,41,2.92,48.83,18.93a36.16,36.16,0,0,1,3,20.93A76.48,76.48,0,0,1,1581,102.27c5.5-1.37,38.7-9.63,49.82,8,9,14.25-3,35.18-4,36.87,14.2-11.66,31.58-8.59,36.87,0,3.76,6.11,1.95,15.87-4,23.91,2.86-17.24,19.64-27,32.88-22.92,10.69,3.29,18.49,15.41,16.94,28.9,3.06-1.72,12-6.19,22.92-4,1.52,0.31,11.8,2.37,12,6,0.21,4.78-17.35,11.85-33.88,10a49,49,0,0,1-19.93-7c-4.08,2.9-10.46,7.61-17.94,14-8.91,7.55-10.5,9.88-14,11-6.13,1.92-16.71-.58-35.87-22.92A54.61,54.61,0,0,1,1603,207.89c-14.21,9.21-38.78,14.93-55.8,1-14.19-11.62-14.88-30.15-14.95-33.88,1.13,22.16-14.44,41.41-34.88,44.84-22.5,3.78-45.3-12.57-48.83-36.87-23,33.87-37,39.94-45.84,37.86C1389.5,217.74,1390,197,1365.82,181A83.54,83.54,0,0,0,1333.89,168.63Z" transform="translate(-1287.32 -80.96)"/>
    </g>
  </g>
</svg>
