<svg id="Layer_1" data-name="Layer 1" xmlns="http://www.w3.org/2000/svg" viewBox="0 0 188 43.07">
  <defs>
    <style>
      .cls-1 {
        fill: #219e4e;
      }
    </style>
  </defs>
  <title>cloud-s-7</title>
  <path class="cls-1" d="M1480.15,224.16c-2.55-1.89-2.55-4.17.27-5.89,3.63-2.1,9.67-1.14,12.9.57-2.42-2.29-6.45-3.81-9.77-5.67a22,22,0,0,0-2.54-.7,19,19,0,0,0-8-.12c-2.06,0-1.53,2.36-1,3.55-6.39-8.33-17-7.14-25.56-3.57,2.13,0,2.66-1.78,4.26-3,1.6-1.78,0-4.76-1.6-5.95-9.05-4.76-22.9-9.52-29.82,1.78-1.6-7.14-6.39-12.49-12.78-13.68a64.56,64.56,0,0,0-9.89-1.85c-6.62-1.12-16.73,1.85-13,11.37-9.05-10.11-22.36-8.33-33.55-4.16-3.73,1.78-8,4.16-6.92,10.11a5.86,5.86,0,0,0,2.13,3c-4.79-1.19-11.18-3.57-14.38,1.78-1.06,1.78-.53,4.16,1.6,4.76-2.13-4.16-7.45-5.35-11.18-3.57-1.6,1.19-5.32,2.38-4.83,5.58-2.7-1.59-6.57-1.76-10.6-.81-0.4.19-.81,0.57-0.4,0.76a5.72,5.72,0,0,0,4.12,1.6c9.05-.59,16,2.38,24.49,5.95,3.73,1.19,7.45-2.38,10.65-1.78,14.91,1.78,34.08,11.89,46.33-2.38,1.06,5.95,5.32,11.3,11,10.6,1.89,0,3.76-.14,6.28-0.22,8-.08,16.52-1.76,20.52-9.79,4.26,4.76,10.65,5.95,16.41,5.29a43.18,43.18,0,0,0,7.3-1.06,57.55,57.55,0,0,0,14.1-5.42c2.66-1.19,8,.59,11.62,3A6.54,6.54,0,0,0,1480.15,224.16Z" transform="translate(-1305.31 -189.44)"/>
</svg>
