<svg id="Layer_1" data-name="Layer 1" xmlns="http://www.w3.org/2000/svg" viewBox="0 0 184.62 54.82">
  <defs>
    <style>
      .cls-1 {
        fill: #219e4e;
      }
    </style>
  </defs>
  <title>cloud-s-2</title>
  <path class="cls-1" d="M311.37,193.63q-8.27.09-16.55,0.1t-16.56,0l-13.85,0-13.85,0c-40.31-5.61-84.72,13.09-121.34-8.72-2.34-1.56,7.79-10.13,14-5.45-2.34-8.57.78-17.92,8.57-22.59,4.67-2.34,13.24-3.12,14.8,3.9,2.34-7.79,7-14.8,14.8-17.92a33.27,33.27,0,0,1,19.48-.78c3.9,1.56,7,7,4.67,10.91,9.35-6.23,21,0,24.15,9.35,7.79-9.35,22.59-4.67,33.11-.1,5.26,2.83,9.35,7.11,10.52,13.35,9.35-4.67,21.82-4.67,32-.19,4.48,2.14,7.9,5.65,8.09,11.1A12.16,12.16,0,0,1,311.37,193.63Z" transform="translate(-128.86 -140.94)"/>
</svg>
