<svg id="llama-suit" xmlns="http://www.w3.org/2000/svg" viewBox="0 0 34.62 71.29">
  <defs>
    <style>
      .cls-1 {
        fill: #a7a9ac;
      }

      .cls-2 {
        fill: #d1d3d4;
      }

      .cls-2, .cls-4, .cls-5, .cls-6 {
        stroke: #414042;
      }

      .cls-2, .cls-3, .cls-4, .cls-5, .cls-6, .cls-7, .cls-8 {
        stroke-linecap: round;
        stroke-linejoin: round;
      }

      .cls-3 {
        fill: #414042;
      }

      .cls-3, .cls-7 {
        stroke: #231f20;
      }

      .cls-4 {
        fill: #c4686c;
      }

      .cls-5 {
        fill: none;
      }

      .cls-6 {
        fill: #c49a6c;
      }

      .cls-7 {
        fill: #fff;
      }

      .cls-8 {
        stroke: #000;
      }
	  @keyframes shuffle {
		0% {transform: translateY(0px);}
		3% {transform: translateY(-2px);}
		8% {transform: translateY(0px);}
		100% {transform: translateY(0px);}
	  }
	  @keyframes tie {
		0% {transform: rotate(0deg);}
		3% {transform: rotate(-5deg);}
		6% {transform: rotate(5deg);}
		9% {transform: rotate(-5deg);}
		12% {transform: rotate(5deg);}
		15% {transform: rotate(0deg);}
		100% {transform: rotate(0deg);}
	  }
	  @keyframes ear {
		0% {transform: rotate(0deg);}
		1% {transform: rotate(-3deg);}
		2% {transform: rotate(3deg);}
		3% {transform: rotate(-3deg);}
		4% {transform: rotate(0deg);}
		100% {transform: rotate(0deg);}
	  }
	  @keyframes tail {
		0% {transform: rotate(0deg);}
		1% {transform: rotate(-3deg);}
		2% {transform: rotate(3deg);}
		3% {transform: rotate(0deg);}
		100% {transform: rotate(0deg);}
	  }
	  #leg-front-left {
		animation: shuffle 5s 1.0s ease-in-out infinite normal;
	  }
	  #leg-front-right {
		animation: shuffle 5s 1.5s ease-in-out infinite normal;
	  }
	  #tie {
		animation: tie 5.5s 3s ease-in-out infinite normal;
		transform-origin: 29px 32px;
	  }
	  #ear-g {
		animation: ear 8s 4s ease-in-out infinite normal;
		transform-origin: 22px 10px;
	  }
	  #tail-g {
		animation: tail 9s .5s linear infinite normal;
		transform-origin: 15px 45px;
	  }
    </style>
  </defs>
  <ellipse id="shadow" class="cls-1" cx="15.95" cy="68.11" rx="15.19" ry="3.19"/>
  <g id="llama-2">
    <g id="legs">
      <g id="legs-rear">
        <path id="leg-rear-right" class="cls-2" d="M70.11,139.38l-.62,14a1.91,1.91,0,0,1-1.94,1.87h0a1.91,1.91,0,0,1-1.94-1.87l-.62-14" transform="translate(-58 -88.08)"/>
        <path id="leg-rear-left" class="cls-2" d="M67.55,140.38l-.62,14A1.91,1.91,0,0,1,65,156.28h0a1.91,1.91,0,0,1-1.94-1.87l-.62-14" transform="translate(-58 -88.08)"/>
      </g>
      <g id="legs-front">
        <g id="leg-front-left">
          <path id="leg-front-left-2" data-name="leg-front-left" class="cls-2" d="M84.61,139.38l-.62,14a1.91,1.91,0,0,1-1.94,1.87h0a1.91,1.91,0,0,1-1.94-1.87l-.62-14" transform="translate(-58 -88.08)"/>
          <polyline id="pantleg-front-left" class="cls-3" points="21.49 51.29 21.96 61.92 26.14 61.92 26.61 51.29"/>
        </g>
        <g id="leg-front-right">
          <path id="leg-front-right-2" data-name="leg-front-right" class="cls-2" d="M86.43,140.38l-.62,14a1.91,1.91,0,0,1-1.94,1.87h0a1.91,1.91,0,0,1-1.94-1.87l-.62-14" transform="translate(-58 -88.08)"/>
          <polyline id="pantleg-front-right" class="cls-3" points="23.31 52.29 23.77 62.58 27.97 62.58 28.43 52.29"/>
        </g>
      </g>
    </g>
	<g id="tail-g">
    <path id="tail" class="cls-2" d="M63.51,126.58c-1.71-2.64-6.12-1.61-4.75,0,1.12,1.32,1.87,5.13,2.38,3.78" transform="translate(-58 -88.08)"/>
	</g>
    <g id="ear-g">
	<path id="ear-right" class="cls-4" d="M80.33,99.24c-3.25-3.83.53-10.66,1-10.66s.78,4.33.35,6c-.34,1.33-.36,2.77.27,3.56" transform="translate(-58 -88.08)"/>
	</g>
    <path id="ear-left" class="cls-4" d="M85.23,98.61c2.45-3.68-.93-10-1.4-10s-.85,4.33-.41,6c.34,1.33.36,2.77-.27,3.56" transform="translate(-58 -88.08)"/>
    <path id="body" class="cls-2" d="M62.43,140.38a14.25,14.25,0,0,1-1.8-6.92c0-4,2.57-8.27,6.41-8.27h6.83a6.06,6.06,0,0,0,6.06-6.07V102.31A4.3,4.3,0,0,1,83.76,98c.87-.07,2.46,1.43,3.11,2.06s3.28,1.89,4.54,3.15a2.12,2.12,0,0,1-1,3.63c-1,.11-3,.57-3,.57s2.59,26.8-1,33" transform="translate(-58 -88.08)"/>
    <path id="eyebrow" class="cls-5" d="M81.78,102.32c1.37,1.39,2.18,1.1,3.22,0" transform="translate(-58 -88.08)"/>
    <path id="mouth" class="cls-5" d="M91.65,105.83c-2.66,0-3.26-.53-3.26-.53" transform="translate(-58 -88.08)"/>
    <line id="nose" class="cls-5" x1="33.93" y1="15.81" x2="32.3" y2="15.81"/>
    <line class="cls-6" x1="23.31" y1="52.29" x2="9.55" y2="52.29"/>
  </g>
  <g id="suit">
    <path id="jacket" class="cls-3" d="M86.43,140.38c2.22-3.84,2.08-15.51,1.65-23.88h0l-8.15-1.94v4.56a6.06,6.06,0,0,1-6.06,6.07H72v15.19h9.31" transform="translate(-58 -88.08)"/>
    <polyline id="shirt" class="cls-7" points="21.93 26.48 21.93 22.79 29.83 24.22 31.14 28.67 30.08 28.41 30.34 40.03 26.74 28.26 25.6 28.43 25.54 27.34 21.93 26.48"/>
    <line id="button1" class="cls-3" x1="28.88" y1="42.98" x2="28.2" y2="42.98"/>
    <line id="button2" class="cls-3" x1="28.77" y1="44.98" x2="28.09" y2="44.98"/>
    <line id="button3" class="cls-3" x1="28.43" y1="46.98" x2="27.76" y2="46.98"/>
    <g id="tie">
      <polygon class="cls-8" points="26.29 32.83 29.11 31.29 26.29 29.75 26.29 32.83"/>
      <polygon class="cls-8" points="29.11 31.29 31.81 32.83 31.81 29.75 29.11 31.29"/>
    </g>
  </g>
</svg>
